<svg width="61" height="35" viewBox="0 0 61 35" fill="none" xmlns="http://www.w3.org/2000/svg">
<rect x="0.5" width="60" height="35" rx="4" fill="#D6D8E7"/>
<rect x="6.5" y="8" width="28" height="19" rx="2" fill="#A0A3BD"/>
<rect x="38.5" y="4" width="16" height="12" rx="2" fill="#EFF0F7"/>
<rect x="38.5" y="19" width="16" height="12" rx="2" fill="#EFF0F7"/>
<path d="M43.5 13.1667V13.1667C43.6039 12.4986 44.0394 11.9224 44.6933 11.7503C45.1929 11.6188 45.8298 11.5 46.5 11.5C47.1702 11.5 47.8071 11.6188 48.3067 11.7503C48.9606 11.9224 49.3961 12.4986 49.5 13.1667V13.1667" stroke="#4E4B66" stroke-linecap="round" stroke-linejoin="round"/>
<path d="M46.4999 10C47.4204 10 48.1666 9.25381 48.1666 8.33333C48.1666 7.41286 47.4204 6.66666 46.4999 6.66666C45.5794 6.66666 44.8333 7.41286 44.8333 8.33333C44.8333 9.25381 45.5794 10 46.4999 10Z" stroke="#4E4B66" stroke-linecap="round" stroke-linejoin="round"/>
<path d="M43.5 28.1667V28.1667C43.6039 27.4986 44.0394 26.9224 44.6933 26.7503C45.1929 26.6188 45.8298 26.5 46.5 26.5C47.1702 26.5 47.8071 26.6188 48.3067 26.7503C48.9606 26.9224 49.3961 27.4986 49.5 28.1667V28.1667" stroke="#4E4B66" stroke-linecap="round" stroke-linejoin="round"/>
<path d="M46.4999 25C47.4204 25 48.1666 24.2538 48.1666 23.3333C48.1666 22.4129 47.4204 21.6667 46.4999 21.6667C45.5794 21.6667 44.8333 22.4129 44.8333 23.3333C44.8333 24.2538 45.5794 25 46.4999 25Z" stroke="#4E4B66" stroke-linecap="round" stroke-linejoin="round"/>
</svg>
