<svg width="61" height="35" viewBox="0 0 61 35" fill="none" xmlns="http://www.w3.org/2000/svg">
<rect x="0.5" width="60" height="35" rx="4" fill="#D6D8E7"/>
<path d="M39.5 24.3333V24.3333C39.7078 22.9972 40.5789 21.8447 41.8865 21.5006C42.8857 21.2377 44.1596 21 45.5 21C46.8404 21 48.1143 21.2377 49.1135 21.5006C50.4211 21.8447 51.2922 22.9972 51.5 24.3333V24.3333" stroke="#4E4B66" stroke-width="1.5" stroke-linecap="round" stroke-linejoin="round"/>
<path d="M45.5001 18C47.341 18 48.8334 16.5076 48.8334 14.6667C48.8334 12.8257 47.341 11.3333 45.5001 11.3333C43.6591 11.3333 42.1667 12.8257 42.1667 14.6667C42.1667 16.5076 43.6591 18 45.5001 18Z" stroke="#4E4B66" stroke-width="1.5" stroke-linecap="round" stroke-linejoin="round"/>
<line x1="30" y1="33" x2="30" y2="2" stroke="#A0A3BD"/>
<path d="M9.5 24.3333V24.3333C9.70784 22.9972 10.5789 21.8447 11.8865 21.5006C12.8857 21.2377 14.1596 21 15.5 21C16.8404 21 18.1143 21.2377 19.1135 21.5006C20.4211 21.8447 21.2922 22.9972 21.5 24.3333V24.3333" stroke="#4E4B66" stroke-width="1.5" stroke-linecap="round" stroke-linejoin="round"/>
<path d="M15.5001 18C17.341 18 18.8334 16.5076 18.8334 14.6667C18.8334 12.8257 17.341 11.3333 15.5001 11.3333C13.6591 11.3333 12.1667 12.8257 12.1667 14.6667C12.1667 16.5076 13.6591 18 15.5001 18Z" stroke="#4E4B66" stroke-width="1.5" stroke-linecap="round" stroke-linejoin="round"/>
</svg>
