<svg width="61" height="35" viewBox="0 0 61 35" fill="none" xmlns="http://www.w3.org/2000/svg">
<rect x="0.5" width="60" height="35" rx="4" fill="#D6D8E7"/>
<rect x="4.5" y="8" width="25" height="19" rx="2" fill="#EFF0F7"/>
<rect x="31.5" y="8" width="25" height="19" rx="2" fill="#EFF0F7"/>
<path d="M12.125 23.6458V23.6458C12.2939 22.5603 13.0016 21.6238 14.0641 21.3442C14.8759 21.1306 15.9109 20.9375 17 20.9375C18.0891 20.9375 19.1241 21.1306 19.9359 21.3442C20.9984 21.6238 21.7061 22.5603 21.875 23.6458V23.6458" stroke="#4E4B66" stroke-width="1.5" stroke-linecap="round" stroke-linejoin="round"/>
<path d="M17.0001 18.5C18.4959 18.5 19.7084 17.2874 19.7084 15.7917C19.7084 14.2959 18.4959 13.0833 17.0001 13.0833C15.5043 13.0833 14.2917 14.2959 14.2917 15.7917C14.2917 17.2874 15.5043 18.5 17.0001 18.5Z" stroke="#4E4B66" stroke-width="1.5" stroke-linecap="round" stroke-linejoin="round"/>
<path d="M39.125 23.6458V23.6458C39.2939 22.5603 40.0016 21.6238 41.0641 21.3442C41.8759 21.1306 42.9109 20.9375 44 20.9375C45.0891 20.9375 46.1241 21.1306 46.9359 21.3442C47.9984 21.6238 48.7061 22.5603 48.875 23.6458V23.6458" stroke="#4E4B66" stroke-width="1.5" stroke-linecap="round" stroke-linejoin="round"/>
<path d="M44.0001 18.5C45.4959 18.5 46.7084 17.2874 46.7084 15.7917C46.7084 14.2959 45.4959 13.0833 44.0001 13.0833C42.5043 13.0833 41.2917 14.2959 41.2917 15.7917C41.2917 17.2874 42.5043 18.5 44.0001 18.5Z" stroke="#4E4B66" stroke-width="1.5" stroke-linecap="round" stroke-linejoin="round"/>
</svg>
