<svg width="61" height="35" viewBox="0 0 61 35" fill="none" xmlns="http://www.w3.org/2000/svg">
<rect x="0.5" width="60" height="35" rx="4" fill="#D6D8E7"/>
<rect x="40.5" y="4" width="16" height="12" rx="2" fill="#EFF0F7"/>
<rect x="5.5" y="6" width="30" height="23" rx="2" fill="#EFF0F7"/>
<rect x="40.5" y="19" width="16" height="12" rx="2" fill="#EFF0F7"/>
<path d="M45.5 13.1667V13.1667C45.6039 12.4986 46.0394 11.9224 46.6933 11.7503C47.1929 11.6188 47.8298 11.5 48.5 11.5C49.1702 11.5 49.8071 11.6188 50.3067 11.7503C50.9606 11.9224 51.3961 12.4986 51.5 13.1667V13.1667" stroke="#4E4B66" stroke-linecap="round" stroke-linejoin="round"/>
<path d="M48.4999 10C49.4204 10 50.1666 9.25381 50.1666 8.33333C50.1666 7.41286 49.4204 6.66666 48.4999 6.66666C47.5794 6.66666 46.8333 7.41286 46.8333 8.33333C46.8333 9.25381 47.5794 10 48.4999 10Z" stroke="#4E4B66" stroke-linecap="round" stroke-linejoin="round"/>
<path d="M45.5 28.1667V28.1667C45.6039 27.4986 46.0394 26.9224 46.6933 26.7503C47.1929 26.6188 47.8298 26.5 48.5 26.5C49.1702 26.5 49.8071 26.6188 50.3067 26.7503C50.9606 26.9224 51.3961 27.4986 51.5 28.1667V28.1667" stroke="#4E4B66" stroke-linecap="round" stroke-linejoin="round"/>
<path d="M48.4999 25C49.4204 25 50.1666 24.2538 50.1666 23.3333C50.1666 22.4129 49.4204 21.6667 48.4999 21.6667C47.5794 21.6667 46.8333 22.4129 46.8333 23.3333C46.8333 24.2538 47.5794 25 48.4999 25Z" stroke="#4E4B66" stroke-linecap="round" stroke-linejoin="round"/>
<path d="M14.5 24.3333V24.3333C14.7078 22.9972 15.5789 21.8447 16.8865 21.5006C17.8857 21.2377 19.1596 21 20.5 21C21.8404 21 23.1143 21.2377 24.1135 21.5006C25.4211 21.8447 26.2922 22.9972 26.5 24.3333V24.3333" stroke="#4E4B66" stroke-width="1.5" stroke-linecap="round" stroke-linejoin="round"/>
<path d="M20.5001 18C22.341 18 23.8334 16.5076 23.8334 14.6667C23.8334 12.8257 22.341 11.3333 20.5001 11.3333C18.6591 11.3333 17.1667 12.8257 17.1667 14.6667C17.1667 16.5076 18.6591 18 20.5001 18Z" stroke="#4E4B66" stroke-width="1.5" stroke-linecap="round" stroke-linejoin="round"/>
</svg>
