<svg width="61" height="35" viewBox="0 0 61 35" fill="none" xmlns="http://www.w3.org/2000/svg">
<path d="M0.5 4C0.5 1.79086 2.29086 0 4.5 0H56.5C58.7091 0 60.5 1.79086 60.5 4V31C60.5 33.2091 58.7091 35 56.5 35H4.5C2.29086 35 0.5 33.2091 0.5 31V4Z" fill="#D6D8E7"/>
<path d="M23 24.9167L23.0821 24.3886C23.2907 23.0477 24.1647 21.8964 25.4679 21.5183C26.7773 21.1384 28.5843 20.75 30.5 20.75C32.4157 20.75 34.2227 21.1384 35.5321 21.5183C36.8353 21.8964 37.7093 23.0477 37.9179 24.3886L38 24.9167" stroke="#4E4B66" stroke-width="2" stroke-linecap="round" stroke-linejoin="round"/>
<path d="M30.4999 17C32.8011 17 34.6666 15.1345 34.6666 12.8333C34.6666 10.5321 32.8011 8.66666 30.4999 8.66666C28.1987 8.66666 26.3333 10.5321 26.3333 12.8333C26.3333 15.1345 28.1987 17 30.4999 17Z" stroke="#4E4B66" stroke-width="2" stroke-linecap="round" stroke-linejoin="round"/>
</svg>
